<svg width="24" height="34" viewBox="0 0 24 34" fill="none" xmlns="http://www.w3.org/2000/svg">
<path d="M22.9677 29.5161H21.9677V29.5161L22.9677 29.5161ZM21.9677 33C21.9677 33.5523 22.4155 34 22.9678 34C23.52 34 23.9677 33.5523 23.9677 33L21.9677 33ZM0.032259 33C0.0322641 33.5523 0.479984 34 1.03227 34C1.58455 34 2.03226 33.5523 2.03226 33L0.032259 33ZM1.03223 29.5161H0.0322266V29.5161L1.03223 29.5161ZM21.9677 29.5161L21.9677 33L23.9677 33L23.9677 29.5161L21.9677 29.5161ZM2.03226 33L2.03223 29.5161L0.0322266 29.5161L0.032259 33L2.03226 33ZM12 19.5484C17.505 19.5484 21.9677 24.0111 21.9677 29.5161H23.9677C23.9677 22.9065 18.6096 17.5484 12 17.5484V19.5484ZM12 17.5484C5.39037 17.5484 0.0322266 22.9065 0.0322266 29.5161H2.03223C2.03223 24.0111 6.49494 19.5484 12 19.5484V17.5484ZM2.22577 9.77419C2.22577 15.1723 6.60183 19.5484 12 19.5484V17.5484C7.7064 17.5484 4.22577 14.0678 4.22577 9.77419H2.22577ZM12 19.5484C17.3981 19.5484 21.7742 15.1723 21.7742 9.77419H19.7742C19.7742 14.0678 16.2935 17.5484 12 17.5484V19.5484ZM21.7742 9.77419C21.7742 4.37606 17.3981 0 12 0V2C16.2935 2 19.7742 5.48063 19.7742 9.77419H21.7742ZM12 0C6.60183 0 2.22577 4.37606 2.22577 9.77419H4.22577C4.22577 5.48063 7.7064 2 12 2V0Z" fill="#272624"/>
</svg>
