<?xml version="1.0" encoding="utf-8"?>
<!-- Generator: Adobe Illustrator 27.1.1, SVG Export Plug-In . SVG Version: 6.00 Build 0)  -->
<svg version="1.1" id="Calque_1" xmlns="http://www.w3.org/2000/svg" xmlns:xlink="http://www.w3.org/1999/xlink" x="0px" y="0px"
	 viewBox="0 0 54 74" style="enable-background:new 0 0 54 74;" xml:space="preserve">
<style type="text/css">
	.st0{fill-rule:evenodd;clip-rule:evenodd;fill:url(#SVGID_1_);}
	.st1{fill-rule:evenodd;clip-rule:evenodd;fill:url(#SVGID_00000155854275183086109980000018097213389561192338_);}
	.st2{fill:#E2E005;filter:url(#Adobe_OpacityMaskFilter);}
	.st3{fill:#E2E005;}
	.st4{mask:url(#mask0_294_163304_00000176743125114149689670000010445859019378667648_);}
	.st5{fill:url(#SVGID_00000066512120221681052430000000063957687071647916_);}
	.st6{fill:url(#SVGID_00000054972332348215890340000002590185418627525295_);}
	.st7{fill:url(#SVGID_00000025417485220577121270000005331031457008884358_);}
	.st8{opacity:0.3;fill-rule:evenodd;clip-rule:evenodd;fill:#272701;enable-background:new    ;}
	.st9{opacity:0.4;fill:#E0DF43;enable-background:new    ;}
	.st10{opacity:0.8;fill:#FFFFFF;enable-background:new    ;}
	.st11{fill:#FFFE9A;}
	.st12{fill-rule:evenodd;clip-rule:evenodd;fill:url(#SVGID_00000117659724534478303520000008830683192511577990_);}
</style>
<g>
	
		<linearGradient id="SVGID_1_" gradientUnits="userSpaceOnUse" x1="26.3281" y1="73" x2="26.3281" y2="5" gradientTransform="matrix(1 0 0 -1 0 76)">
		<stop  offset="0" style="stop-color:#BFBD16"/>
		<stop  offset="0.5625" style="stop-color:#6B6B00"/>
		<stop  offset="0.849" style="stop-color:#363600"/>
	</linearGradient>
	<path class="st0" d="M26.3,3c-13.8,0-25,24.3-25,42.4c0,14.1,11.2,25.6,25,25.6s25-11.4,25-25.6C51.3,27.4,40.1,3,26.3,3z"/>
	
		<linearGradient id="SVGID_00000055693698759005208500000002496253453855238026_" gradientUnits="userSpaceOnUse" x1="26.3271" y1="68.7725" x2="26.3271" y2="9.2272" gradientTransform="matrix(1 0 0 -1 0 76)">
		<stop  offset="0.3958" style="stop-color:#212100;stop-opacity:0"/>
		<stop  offset="1" style="stop-color:#212100"/>
	</linearGradient>
	<path style="fill-rule:evenodd;clip-rule:evenodd;fill:url(#SVGID_00000055693698759005208500000002496253453855238026_);" d="
		M26.3,17.2c-11.4,0-20.6,11.3-20.6,27.2c0,12.4,9.2,22.4,20.6,22.4s20.6-10,20.6-22.4C46.9,28.6,37.7,17.2,26.3,17.2z"/>
	<defs>
		<filter id="Adobe_OpacityMaskFilter" filterUnits="userSpaceOnUse" x="3.8" y="11.3" width="45.2" height="58.3">
			<feColorMatrix  type="matrix" values="1 0 0 0 0  0 1 0 0 0  0 0 1 0 0  0 0 0 1 0"/>
		</filter>
	</defs>
	
		<mask maskUnits="userSpaceOnUse" x="3.8" y="11.3" width="45.2" height="58.3" id="mask0_294_163304_00000176743125114149689670000010445859019378667648_">
		<path class="st2" d="M24.2,13.4c0,1.1-0.9,2-2,2s-2-0.9-2-2c0-1.1,0.9-2,2-2S24.2,12.2,24.2,13.4z"/>
		<path class="st3" d="M24.1,16.9c5.1-0.1,8.8,5,5,9.8c0.3-2.7-0.8-4.3-2-4.8c-1.7-0.8-5.2-0.5-5.2,2.8c0,3.3,2.8,4,9.2,4.4
			c7.3,0.4,13.7,4.5,13.6,15.7c-0.1,10.4-7.5,17.2-16,18.6c-14.1,2.3-25.9-13.7-12-19.1c-6.4,5.7,0.4,9.7,7,10.2
			c6.5,0.5,10.3-4.5,9.8-11c-0.6-8.4-4.6-9-9.3-8.4c-5.7,0.8-10-0.7-10-8.4C14.1,20.9,19,16.9,24.1,16.9z"/>
		<path class="st3" d="M22.4,45.1c1.8,0,3.3-1.4,3.3-3.1s-1.5-3.1-3.3-3.1c-1.8,0-3.3,1.4-3.3,3.1S20.6,45.1,22.4,45.1z"/>
	</mask>
	<g class="st4">
		
			<linearGradient id="SVGID_00000063619014302109517470000014722914808274814129_" gradientUnits="userSpaceOnUse" x1="22.1528" y1="62.8247" x2="41.9028" y2="14.5747" gradientTransform="matrix(1 0 0 -1 0 76)">
			<stop  offset="0.474" style="stop-color:#E2E005"/>
			<stop  offset="1" style="stop-color:#696800"/>
		</linearGradient>
		<path style="fill:url(#SVGID_00000063619014302109517470000014722914808274814129_);" d="M24.2,13.4c0,1.1-0.9,2-2,2s-2-0.9-2-2
			c0-1.1,0.9-2,2-2S24.2,12.2,24.2,13.4z"/>
		
			<linearGradient id="SVGID_00000074439662373590286370000002304466806715399609_" gradientUnits="userSpaceOnUse" x1="15.0736" y1="59.927" x2="34.8236" y2="11.677" gradientTransform="matrix(1 0 0 -1 0 76)">
			<stop  offset="0.474" style="stop-color:#E2E005"/>
			<stop  offset="1" style="stop-color:#696800"/>
		</linearGradient>
		<path style="fill:url(#SVGID_00000074439662373590286370000002304466806715399609_);" d="M24.1,16.9c5.1-0.1,8.8,5,5,9.8
			c0.3-2.7-0.8-4.3-2-4.8c-1.7-0.8-5.2-0.5-5.2,2.8c0,3.3,2.8,4,9.2,4.4c7.3,0.4,13.7,4.5,13.6,15.7c-0.1,10.4-7.5,17.2-16,18.6
			c-14.1,2.3-25.9-13.7-12-19.1c-6.4,5.7,0.4,9.7,7,10.2c6.5,0.5,10.3-4.5,9.8-11c-0.6-8.4-4.6-9-9.3-8.4c-5.7,0.8-10-0.7-10-8.4
			C14.1,20.9,19,16.9,24.1,16.9z"/>
		
			<linearGradient id="SVGID_00000109718169824827627990000008805321475946306487_" gradientUnits="userSpaceOnUse" x1="12.2283" y1="58.7624" x2="31.9783" y2="10.5124" gradientTransform="matrix(1 0 0 -1 0 76)">
			<stop  offset="0.474" style="stop-color:#E2E005"/>
			<stop  offset="1" style="stop-color:#696800"/>
		</linearGradient>
		<path style="fill:url(#SVGID_00000109718169824827627990000008805321475946306487_);" d="M22.4,45.1c1.8,0,3.3-1.4,3.3-3.1
			s-1.5-3.1-3.3-3.1c-1.8,0-3.3,1.4-3.3,3.1S20.6,45.1,22.4,45.1z"/>
		<path class="st8" d="M48.2,43.3c-1.1,9.2-10.5,16.5-21.9,16.5c-11.4,0-20.8-7.2-21.9-16.5C4,45,3.8,46.7,3.8,48.5
			c0,11.6,10.1,21,22.6,21c12.5,0,22.6-9.4,22.6-21C48.9,46.7,48.7,45,48.2,43.3z"/>
	</g>
	<ellipse transform="matrix(0.6254 -0.7803 0.7803 0.6254 -6.2465 22.1392)" class="st9" cx="19.9" cy="17.6" rx="15.3" ry="7.7"/>
	<ellipse transform="matrix(0.6254 -0.7803 0.7803 0.6254 -3.8025 20.0215)" class="st10" cx="19" cy="14" rx="6.9" ry="3.5"/>
	<ellipse transform="matrix(0.6254 -0.7803 0.7803 0.6254 -24.0778 31.6462)" class="st11" cx="20.9" cy="40.9" rx="1.6" ry="0.8"/>
	<ellipse transform="matrix(0.6254 -0.7803 0.7803 0.6254 -13.0728 18.3193)" class="st10" cx="12.5" cy="22.8" rx="2.2" ry="1.1"/>
	
		<linearGradient id="SVGID_00000097463918562886102980000000623987898616825773_" gradientUnits="userSpaceOnUse" x1="26.3281" y1="73" x2="26.3281" y2="5" gradientTransform="matrix(1 0 0 -1 0 76)">
		<stop  offset="0" style="stop-color:#E2E005"/>
		<stop  offset="1" style="stop-color:#686701"/>
	</linearGradient>
	<path style="fill-rule:evenodd;clip-rule:evenodd;fill:url(#SVGID_00000097463918562886102980000000623987898616825773_);" d="
		M34.8,8.6C32,6.2,29.2,5,26.3,5c-2.8,0-5.7,1.2-8.4,3.6c-2.8,2.4-5.3,5.8-7.5,9.8c-4.4,8.1-7.1,18.4-7.1,27
		c0,13.1,10.3,23.6,23,23.6s23-10.5,23-23.6c0-8.7-2.7-19-7.1-27.1C40.1,14.3,37.5,11,34.8,8.6z M51.3,45.4C51.3,27.3,40.1,3,26.3,3
		s-25,24.4-25,42.4c0,14.1,11.2,25.6,25,25.6S51.3,59.6,51.3,45.4z"/>
</g>
</svg>
