<svg width="54" height="34" viewBox="0 0 54 34" fill="none" xmlns="http://www.w3.org/2000/svg">
<path d="M22.9995 18C22.4472 18 21.9995 18.4477 21.9995 19C21.9995 19.5523 22.4472 20 22.9995 20V18ZM50.7319 20C51.2842 20 51.7319 19.5523 51.7319 19C51.7319 18.4477 51.2842 18 50.7319 18V20ZM22.9995 20H50.7319V18H22.9995V20Z" fill="#121212"/>
<path d="M18.7319 12H52.752C52.752 13.7063 52.7319 19 52.7319 19H50.5645C49.3931 28.2123 46.7319 33 46.7319 33H35.742H24.752C24.752 33 24.3998 32.3664 23.8953 31.1166" stroke="#121212" stroke-width="2" stroke-linecap="round" stroke-linejoin="round"/>
<path d="M40.7319 14L35.7319 1L30.7319 14" stroke="#121212" stroke-width="2" stroke-linecap="round" stroke-linejoin="round"/>
<path d="M8.08057 15.5625C7.52828 15.5625 7.08057 16.0102 7.08057 16.5625C7.08057 17.1148 7.52828 17.5625 8.08057 17.5625V15.5625ZM18.1912 17.5625C18.7435 17.5625 19.1912 17.1148 19.1912 16.5625C19.1912 16.0102 18.7435 15.5625 18.1912 15.5625V17.5625ZM8.08057 17.5625H18.1912V15.5625H8.08057V17.5625Z" fill="#121212"/>
<path d="M9.48486 21.1562C8.93258 21.1562 8.48486 21.604 8.48486 22.1562C8.48486 22.7085 8.93258 23.1562 9.48486 23.1562V21.1562ZM19.5955 23.1562C20.1478 23.1562 20.5955 22.7085 20.5955 22.1562C20.5955 21.604 20.1478 21.1562 19.5955 21.1562V23.1562ZM9.48486 23.1562H19.5955V21.1562H9.48486V23.1562Z" fill="#121212"/>
<path d="M10.8892 26.75C10.3369 26.75 9.88916 27.1977 9.88916 27.75C9.88916 28.3023 10.3369 28.75 10.8892 28.75V26.75ZM20.9998 28.75C21.5521 28.75 21.9998 28.3023 21.9998 27.75C21.9998 27.1977 21.5521 26.75 20.9998 26.75V28.75ZM10.8892 28.75H20.9998V26.75H10.8892V28.75Z" fill="#121212"/>
</svg>
