<svg width="19" height="19" viewBox="0 0 19 19" fill="none" xmlns="http://www.w3.org/2000/svg">
<path d="M11.3232 9.50008L11.1957 9.01661C10.9762 9.07451 10.8232 9.27305 10.8232 9.50008C10.8232 9.72711 10.9762 9.92565 11.1957 9.98355L11.3232 9.50008ZM11.4508 9.98355C14.8615 9.08398 17.3649 6.17272 17.3649 2.96883H16.3649C16.3649 5.64307 14.245 8.21238 11.1957 9.01661L11.4508 9.98355ZM11.1957 9.98355C14.245 10.7878 16.3649 13.3571 16.3649 16.0313H17.3649C17.3649 12.8274 14.8615 9.91618 11.4508 9.01661L11.1957 9.98355ZM16.3649 16.0313V18.2084H17.3649V16.0313H16.3649ZM17.3649 2.96883V0.791748H16.3649V2.96883H17.3649Z" fill="#99958F"/>
<path d="M8.15723 9.50008L8.28474 9.01661C8.50427 9.07451 8.65723 9.27305 8.65723 9.50008C8.65723 9.72711 8.50427 9.92565 8.28474 9.98355L8.15723 9.50008ZM8.02971 9.98355C4.61899 9.08398 2.11556 6.17272 2.11556 2.96883H3.11556C3.11556 5.64307 5.23546 8.21238 8.28474 9.01661L8.02971 9.98355ZM8.28474 9.98355C5.23546 10.7878 3.11556 13.3571 3.11556 16.0313H2.11556C2.11556 12.8274 4.61899 9.91618 8.02971 9.01661L8.28474 9.98355ZM2.11556 2.96883V0.791748H3.11556V2.96883H2.11556ZM3.11556 16.0313V18.2084H2.11556V16.0313H3.11556Z" fill="#99958F"/>
<path d="M1 0.760254H18.48" stroke="#99958F" stroke-linecap="round" stroke-linejoin="round"/>
<path d="M1 18.24L18.48 18.24" stroke="#99958F" stroke-linecap="round" stroke-linejoin="round"/>
<path d="M14.4902 18.2083L14.8103 17.8241C14.972 17.9589 15.032 18.1805 14.9604 18.3785C14.8887 18.5764 14.7007 18.7083 14.4902 18.7083V18.2083ZM4.99023 18.2083V18.7083C4.77972 18.7083 4.59176 18.5764 4.5201 18.3785C4.44844 18.1805 4.50842 17.9589 4.67014 17.8241L4.99023 18.2083ZM9.10005 14.7834L8.77996 14.3993L9.10005 14.7834ZM14.1701 18.5924L10.0603 15.1675L10.7005 14.3993L14.8103 17.8241L14.1701 18.5924ZM9.42014 15.1675L5.31033 18.5924L4.67014 17.8241L8.77996 14.3993L9.42014 15.1675ZM14.4902 18.7083H4.99023V17.7083H14.4902V18.7083ZM10.0603 15.1675C9.8749 15.013 9.60557 15.013 9.42014 15.1675L8.77996 14.3993C9.33623 13.9357 10.1442 13.9357 10.7005 14.3993L10.0603 15.1675Z" fill="#99958F"/>
<path d="M12.3271 6.47463C12.545 6.30501 12.5841 5.99086 12.4145 5.77295C12.2449 5.55504 11.9307 5.5159 11.7128 5.68552L12.3271 6.47463ZM7.76709 5.68552C7.54918 5.5159 7.23503 5.55504 7.06541 5.77295C6.89579 5.99086 6.93493 6.30501 7.15283 6.47463L7.76709 5.68552ZM11.7128 5.68552C11.1946 6.08895 10.5049 6.34008 9.73996 6.34008V7.34008C10.7234 7.34008 11.6301 7.0172 12.3271 6.47463L11.7128 5.68552ZM9.73996 6.34008C8.97501 6.34008 8.28535 6.08895 7.76709 5.68552L7.15283 6.47463C7.84985 7.0172 8.75654 7.34008 9.73996 7.34008V6.34008Z" fill="#99958F"/>
</svg>
