<svg width="320" height="248" viewBox="0 0 320 248" fill="none" xmlns="http://www.w3.org/2000/svg">
<g opacity="0.2">
<path d="M206.046 48.4555C214.755 51.8134 222.282 52.5669 227.494 51.2338C232.779 56.4648 235.998 63.397 235.998 71.0012C235.998 87.2936 221.223 100.501 202.998 100.501C184.773 100.501 169.998 87.2936 169.998 71.0012C169.998 57.4875 180.163 46.096 194.03 42.6035C197.802 44.8498 201.973 46.8853 206.046 48.4555Z" fill="#1C1F12"/>
<path d="M81.4301 45.5389C73.8159 43.6897 66.9271 43.1951 60.1057 45.1049C58.2276 51.6894 59.5178 60.9344 60.7021 66.4011C67.41 60.4384 77.3157 50.0085 81.4301 45.5389Z" fill="#1C1F12"/>
<path d="M203.276 169.057C214.498 154.501 192 140.498 160.001 154.5L159.999 154.504L159.997 154.5C127.998 140.498 105.5 154.501 116.722 169.057C124.569 172.606 142.474 177.647 159.997 177.647L159.998 177.643L160.001 177.647C177.524 177.647 195.429 172.606 203.276 169.057Z" fill="#1C1F12"/>
<path d="M238.568 45.5389C246.182 43.6897 253.071 43.1951 259.892 45.1049C261.77 51.6894 260.48 60.9344 259.296 66.4011C252.588 60.4384 242.682 50.0085 238.568 45.5389Z" fill="#1C1F12"/>
</g>
<path fill-rule="evenodd" clip-rule="evenodd" d="M68.4983 203.377C20.1439 187.351 -4.75203 135.679 1.54568 91.8602C1.71858 90.6572 2.37068 89.5753 3.35365 88.8607C4.33662 88.146 5.56686 87.8593 6.76451 88.0658C12.6375 89.0784 17.8612 89.1315 22.3386 88.511C19.9927 85.3232 18.2448 81.6041 17.4497 77.4795C17.1762 76.0607 17.6007 74.5968 18.5908 73.5444C19.5809 72.4919 21.0161 71.979 22.449 72.1654C31.8496 73.3886 38.7762 72.7974 44.2143 71.1741C48.6762 69.8423 52.3277 67.7589 55.6539 65.1272C53.9962 57.4191 54.461 48.6278 55.768 43.9025C56.1743 42.4339 57.2962 41.2705 58.7492 40.8114C61.483 39.9474 65.319 39.4028 69.2443 39.303C72.7455 39.2139 76.6348 39.4698 80.1835 40.3329C83.2721 37.7428 86.7261 35.2701 90.7077 33.0435C88.5453 30.111 86.9474 26.8812 86.1696 23.77C85.6752 21.7925 86.5718 19.7296 88.3551 18.742C97.6101 13.6165 107.589 13.2406 115.727 14.891C115.707 14.7646 115.687 14.638 115.668 14.5111C115.195 11.3074 114.996 6.989 116.748 3.48563C117.556 1.8693 119.253 0.893207 121.056 1.00703C129.141 1.51724 138.16 8.01243 142.142 17.7059C147.649 17.339 154.594 17.1501 160 17.1501C165.406 17.1501 172.351 17.339 177.858 17.7059C181.839 8.01243 190.859 1.51724 198.943 1.00703C200.747 0.893207 202.444 1.8693 203.252 3.48563C205.004 6.989 204.805 11.3074 204.332 14.5111C204.313 14.638 204.293 14.7646 204.273 14.891C212.411 13.2406 222.39 13.6165 231.645 18.742C233.428 19.7296 234.325 21.7925 233.83 23.77C233.053 26.8812 231.455 30.111 229.292 33.0435C233.274 35.2701 236.728 37.7428 239.816 40.3329C243.365 39.4698 247.254 39.2139 250.756 39.303C254.681 39.4028 258.517 39.9474 261.251 40.8114C262.704 41.2705 263.826 42.4339 264.232 43.9025C265.539 48.6278 266.004 57.4191 264.346 65.1272C267.672 67.7589 271.324 69.8423 275.786 71.1741C281.224 72.7974 288.15 73.3886 297.551 72.1654C298.984 71.979 300.419 72.4919 301.409 73.5444C302.399 74.5968 302.824 76.0607 302.55 77.4795C301.755 81.6041 300.007 85.3232 297.661 88.511C302.139 89.1315 307.362 89.0784 313.235 88.0658C314.433 87.8593 315.663 88.146 316.646 88.8607C317.629 89.5753 318.281 90.6572 318.454 91.8602C324.752 135.679 299.856 187.351 251.502 203.377C253.352 203.996 255.357 204.522 257.589 205.053C258.395 205.245 258.892 206.054 258.701 206.86C258.509 207.665 257.7 208.163 256.894 207.971C249.6 206.235 244.111 204.437 238.656 198.983C238.071 198.397 238.071 197.447 238.656 196.861C239.242 196.275 240.192 196.275 240.778 196.861C241.749 197.832 242.719 198.675 243.706 199.415C292.171 186.982 318.112 137.068 312.719 94.2255C303.193 95.6462 294.953 94.7898 288.481 92.4056C287.97 92.2172 287.601 91.7665 287.518 91.2282C287.434 90.6898 287.649 90.1485 288.079 89.814C291.803 86.9177 294.767 82.9645 296.157 78.3718C285.772 79.4757 277.857 78.4694 271.383 76.0155C264.466 73.3936 259.327 69.1684 254.652 64.381C252.518 62.1961 250.486 59.9088 248.429 57.5927L248.428 57.5916L248.428 57.5907C241.571 49.8698 234.429 41.8276 222.253 36.1823C221.672 36.6648 221.07 37.1217 220.45 37.5484C221.837 38.2378 223.39 39.1601 224.932 40.276C227.73 42.3 230.633 45.0591 232.494 48.4082C232.837 49.0262 232.703 49.8 232.17 50.2655C230.535 51.6966 228.373 52.5499 226.163 53.0104C223.938 53.4738 221.558 53.5622 219.375 53.3804C218.55 53.3116 217.936 52.5865 218.005 51.761C218.074 50.9354 218.799 50.3219 219.625 50.3907C221.566 50.5525 223.652 50.4691 225.551 50.0735C226.945 49.7829 228.183 49.3359 229.183 48.7376C227.61 46.3774 225.41 44.3243 223.174 42.7066C220.578 40.8291 218.072 39.6368 216.683 39.2398C216.088 39.0698 215.658 38.5522 215.601 37.9363C215.544 37.3204 215.871 36.7325 216.424 36.4558C218.054 35.6407 219.585 34.5655 220.971 33.3277C220.979 33.3204 220.987 33.3132 220.994 33.3061C221.005 33.2967 221.015 33.2875 221.026 33.2784C224.175 30.4492 226.571 26.7832 227.683 23.4331C217.308 18.2005 205.806 19.7513 198.451 22.9493C197.896 23.1906 197.25 23.0748 196.814 22.6558C196.377 22.2367 196.235 21.5965 196.454 21.0322C197.108 19.3413 197.968 16.5307 198.396 13.6346C198.762 11.1563 198.776 8.8388 198.256 7.1144C194.98 7.6351 191.247 9.59976 188.136 12.7945C185.606 15.3929 183.543 18.7514 182.501 22.6825C182.485 22.795 182.457 22.9031 182.418 23.0055C182.094 24.3059 181.882 25.6673 181.802 27.0833C181.755 27.9104 181.046 28.5427 180.219 28.4956C179.392 28.4486 178.76 27.7399 178.807 26.9128C178.867 25.853 178.992 24.8203 179.175 23.8169C173.681 23.3828 165.934 23.15 160 23.15C154.066 23.15 146.319 23.3828 140.825 23.8169C141.008 24.8203 141.133 25.853 141.193 26.9128C141.24 27.7399 140.608 28.4486 139.781 28.4956C138.954 28.5427 138.245 27.9104 138.198 27.0833C138.118 25.6673 137.906 24.3059 137.582 23.0055C137.543 22.9031 137.515 22.795 137.499 22.6825C136.457 18.7514 134.394 15.3929 131.864 12.7945C128.753 9.59976 125.02 7.6351 121.744 7.1144C121.224 8.8388 121.238 11.1563 121.604 13.6346C122.032 16.5307 122.892 19.3413 123.546 21.0322C123.765 21.5965 123.623 22.2367 123.186 22.6558C122.75 23.0748 122.104 23.1906 121.549 22.9493C114.194 19.7513 102.692 18.2005 92.3166 23.4331C93.4287 26.7832 95.825 30.4492 98.9738 33.2784C98.9925 33.2943 99.0108 33.3108 99.0288 33.3277C100.415 34.5655 101.946 35.6407 103.576 36.4558C104.129 36.7325 104.456 37.3204 104.399 37.9363C104.342 38.5522 103.912 39.0698 103.317 39.2398C101.928 39.6368 99.4216 40.8291 96.8263 42.7066C94.5901 44.3243 92.3901 46.3774 90.8171 48.7376C91.8168 49.3359 93.0545 49.7829 94.449 50.0735C96.348 50.4691 98.4344 50.5525 100.375 50.3907C101.201 50.3219 101.926 50.9354 101.995 51.761C102.064 52.5865 101.45 53.3116 100.624 53.3804C98.4422 53.5622 96.0616 53.4738 93.8372 53.0104C91.6269 52.5499 89.4649 51.6966 87.8294 50.2655C87.2974 49.8 87.1626 49.0262 87.5059 48.4082C89.3665 45.0591 92.27 42.3 95.0679 40.276C96.6104 39.1601 98.1626 38.2378 99.5495 37.5484C98.9296 37.1217 98.3281 36.6648 97.7472 36.1823C85.5713 41.8276 78.4291 49.8698 71.5723 57.5907L71.5702 57.593L71.5695 57.5938L71.5686 57.5948C69.5123 59.9102 67.4815 62.1968 65.3484 64.381C60.6728 69.1684 55.5336 73.3936 48.6167 76.0155C42.1428 78.4694 34.2277 79.4757 23.8427 78.3718C25.2331 82.9645 28.1969 86.9177 31.9208 89.814C32.3509 90.1485 32.5657 90.6898 32.4822 91.2282C32.3986 91.7665 32.0297 92.2172 31.5185 92.4056C25.0469 94.7898 16.8068 95.6462 7.28092 94.2255C1.88816 137.068 27.8287 186.982 76.2938 199.415C77.2811 198.675 78.2509 197.832 79.2221 196.861C79.8078 196.275 80.7576 196.275 81.3434 196.861C81.9292 197.447 81.9292 198.397 81.3434 198.983C75.889 204.437 70.3998 206.235 63.106 207.971C62.3001 208.163 61.4912 207.665 61.2994 206.86C61.1075 206.054 61.6052 205.245 62.4111 205.053C64.6429 204.522 66.648 203.996 68.4983 203.377ZM256.798 62.2849C257.349 62.8488 257.903 63.4018 258.464 63.9425C259.846 57.5975 259.546 50.3187 258.649 46.3051C256.617 45.7754 253.737 45.3811 250.603 45.3014C247.601 45.225 244.46 45.44 241.701 46.0547C245.094 49.2925 248.056 52.6329 250.892 55.8306C252.888 58.081 254.821 60.2608 256.798 62.2849ZM63.2021 62.2849C62.6513 62.8488 62.0967 63.4018 61.5359 63.9425C60.1542 57.5975 60.4543 50.3187 61.3514 46.3051C63.3826 45.7754 66.2626 45.3811 69.3967 45.3014C72.3988 45.225 75.5395 45.44 78.2992 46.0547C74.9064 49.2925 71.9439 52.6329 69.1079 55.8306C67.1121 58.081 65.1789 60.2608 63.2021 62.2849Z" fill="#1C1F12"/>
<path fill-rule="evenodd" clip-rule="evenodd" d="M232.229 156.076C213.195 168.91 186.816 179.149 160 179.149C133.184 179.149 106.805 168.91 87.7712 156.076C78.2521 149.658 70.5049 142.547 65.4445 135.667C60.431 128.852 57.8439 121.965 59.2845 116.127C60.2369 112.268 62.5002 109.506 65.7073 107.683C68.8608 105.89 72.8743 105.029 77.3693 104.782C86.3505 104.288 97.7809 106.223 109.47 108.838C130.316 113.501 144.697 115.674 160 115.674C175.303 115.674 189.684 113.501 210.53 108.838C222.219 106.223 233.649 104.288 242.631 104.782C247.126 105.029 251.139 105.89 254.293 107.683C257.5 109.506 259.763 112.268 260.715 116.127C262.156 121.965 259.569 128.852 254.555 135.667C249.495 142.547 241.748 149.658 232.229 156.076ZM226.069 108.897C232.106 107.979 237.685 107.515 242.466 107.778C246.727 108.012 250.221 108.819 252.81 110.291C255.345 111.732 257.059 113.833 257.803 116.846C258.917 121.361 256.989 127.296 252.139 133.89C247.336 140.419 239.871 147.305 230.552 153.589C221.701 159.557 211.235 164.943 199.891 168.955C198.754 166.853 197.486 165.471 196.24 164.558C194.796 163.499 193.442 163.113 192.495 162.924C192.251 162.875 191.998 162.919 191.784 163.047C190.664 163.719 189.608 165.146 188.879 166.969C188.26 168.516 187.843 170.426 187.825 172.593C178.804 174.848 169.421 176.149 160 176.149C150.578 176.149 141.196 174.848 132.174 172.593C132.157 170.426 131.739 168.516 131.121 166.969C130.391 165.146 129.336 163.719 128.216 163.047C128.002 162.919 127.749 162.875 127.505 162.924C126.558 163.113 125.204 163.499 123.76 164.558C122.514 165.471 121.245 166.853 120.109 168.955C108.764 164.943 98.2994 159.557 89.4484 153.589C80.1289 147.305 72.6642 140.419 67.8611 133.89C63.011 127.296 61.0829 121.361 62.1971 116.846C62.9405 113.833 64.6547 111.732 67.1901 110.291C69.7792 108.819 73.2731 108.012 77.534 107.778C82.3144 107.515 87.8939 107.979 93.9304 108.897C94.3096 111.195 95.0943 113.138 96.0346 114.643C97.0752 116.309 98.3665 117.529 99.5978 118.012C99.8245 118.101 100.076 118.105 100.305 118.021C101.228 117.686 102.52 117.101 103.813 115.873C104.899 114.842 105.952 113.39 106.799 111.321C107.469 111.466 108.141 111.615 108.815 111.765C129.753 116.449 144.378 118.674 160 118.674C175.622 118.674 190.247 116.449 211.184 111.765C211.859 111.615 212.531 111.466 213.201 111.321C214.048 113.39 215.101 114.842 216.186 115.873C217.479 117.101 218.772 117.686 219.695 118.021C219.924 118.105 220.175 118.101 220.402 118.012C221.633 117.529 222.925 116.309 223.965 114.643C224.906 113.138 225.69 111.195 226.069 108.897Z" fill="#1C1F12"/>
<path d="M201.259 64.9141C211.881 64.9141 221.034 71.2338 225.15 80.3312C225.833 81.8408 227.61 82.5108 229.12 81.8279C230.629 81.1449 231.299 79.3675 230.616 77.858C225.565 66.6925 214.324 58.9141 201.259 58.9141C190.946 58.9141 181.764 63.7651 175.874 71.2978C174.853 72.6031 175.084 74.4885 176.389 75.509C177.695 76.5296 179.58 76.2988 180.601 74.9936C185.402 68.8526 192.87 64.9141 201.259 64.9141Z" fill="#1C1F12"/>
<path d="M210.91 93.1054C199.109 95.2211 188.183 91.6056 182.441 84.9181C181.902 84.2896 180.955 84.2175 180.326 84.7572C179.697 85.2968 179.625 86.2438 180.165 86.8724C186.746 94.537 198.835 98.3181 211.44 96.0583C212.255 95.9121 212.798 95.1326 212.651 94.3171C212.505 93.5017 211.726 92.9592 210.91 93.1054Z" fill="#1C1F12"/>
<path d="M176.429 65.7403C177.069 63.1882 178.251 60.8982 179.848 58.9358C180.37 58.2932 180.273 57.3484 179.631 56.8256C178.988 56.3028 178.043 56.3999 177.521 57.0426C175.657 59.3326 174.27 62.0168 173.519 65.01C173.317 65.8136 173.805 66.6284 174.609 66.83C175.412 67.0317 176.227 66.5438 176.429 65.7403Z" fill="#1C1F12"/>
<path d="M186.455 184.64C186.255 183.836 185.44 183.347 184.637 183.548C176.757 185.515 170.379 186.425 160.002 186.425H159.998C149.621 186.425 143.243 185.515 135.363 183.548C134.559 183.347 133.745 183.836 133.545 184.64C133.344 185.444 133.833 186.258 134.637 186.459C142.757 188.485 149.379 189.425 159.998 189.425H160.002C170.621 189.425 177.243 188.485 185.363 186.459C186.167 186.258 186.656 185.444 186.455 184.64Z" fill="#1C1F12"/>
<path d="M184.527 211.802C183.865 212.3 183.732 213.241 184.23 213.903C185.438 215.509 186.568 218.157 187.054 221.014C187.497 223.614 187.372 226.174 186.489 228.172C185.068 228.394 183.472 228.308 182.074 228.031C181.272 227.872 180.581 227.658 180.067 227.435C179.99 227.401 179.92 227.369 179.857 227.338C180.041 226.609 180.197 225.868 180.323 225.117C180.46 224.3 179.909 223.526 179.092 223.389C178.275 223.252 177.502 223.803 177.364 224.62C177.2 225.601 176.979 226.56 176.704 227.496C174.241 235.9 167.567 242.258 160 243.811C152.433 242.258 145.759 235.9 143.295 227.496C143.021 226.56 142.8 225.601 142.635 224.62C142.498 223.803 141.725 223.252 140.908 223.389C140.091 223.526 139.54 224.3 139.677 225.117C139.803 225.868 139.959 226.609 140.143 227.338C140.08 227.369 140.01 227.401 139.933 227.435C139.419 227.658 138.728 227.872 137.925 228.031C136.528 228.308 134.932 228.394 133.511 228.172C132.628 226.174 132.503 223.614 132.946 221.014C133.432 218.157 134.562 215.509 135.77 213.903C136.268 213.241 136.135 212.3 135.473 211.802C134.811 211.304 133.871 211.437 133.373 212.099C131.826 214.156 130.539 217.274 129.988 220.51C129.439 223.735 129.578 227.333 131.187 230.23C131.391 230.597 131.741 230.862 132.15 230.96C134.253 231.462 136.594 231.353 138.509 230.973C139.438 230.789 140.309 230.533 141.042 230.223C144.217 238.749 151.384 245.219 159.677 246.805C159.781 246.829 159.89 246.841 160 246.84C160.11 246.841 160.218 246.829 160.323 246.805C168.616 245.219 175.783 238.749 178.958 230.223C179.691 230.533 180.562 230.789 181.491 230.973C183.405 231.353 185.747 231.462 187.85 230.96C188.259 230.862 188.609 230.597 188.813 230.23C190.422 227.333 190.561 223.735 190.012 220.51C189.461 217.274 188.174 214.156 186.627 212.099C186.129 211.437 185.189 211.304 184.527 211.802Z" fill="#1C1F12"/>
<path d="M118.741 64.9141C108.119 64.9141 98.966 71.2338 94.8501 80.3312C94.1672 81.8408 92.3898 82.5108 90.8803 81.8279C89.3707 81.1449 88.7006 79.3675 89.3836 77.858C94.4352 66.6925 105.676 58.9141 118.741 58.9141C129.054 58.9141 138.236 63.7651 144.126 71.2978C145.147 72.6031 144.916 74.4885 143.611 75.509C142.305 76.5296 140.42 76.2988 139.399 74.9936C134.598 68.8526 127.13 64.9141 118.741 64.9141Z" fill="#1C1F12"/>
<path d="M109.09 93.1054C120.891 95.2211 131.817 91.6056 137.559 84.9181C138.098 84.2896 139.045 84.2175 139.674 84.7572C140.302 85.2968 140.374 86.2438 139.835 86.8724C133.254 94.537 121.165 98.3181 108.56 96.0583C107.745 95.9121 107.202 95.1326 107.349 94.3171C107.495 93.5017 108.274 92.9592 109.09 93.1054Z" fill="#1C1F12"/>
<path d="M143.571 65.7403C142.931 63.1882 141.749 60.8982 140.152 58.9358C139.629 58.2932 139.727 57.3484 140.369 56.8256C141.012 56.3028 141.957 56.3999 142.479 57.0426C144.342 59.3326 145.73 62.0168 146.481 65.01C146.683 65.8136 146.195 66.6284 145.391 66.83C144.588 67.0317 143.773 66.5438 143.571 65.7403Z" fill="#1C1F12"/>
<path d="M165.413 75.8284C163.8 74.6186 161.837 74.2539 160.002 74.2539L160 74.2539L159.998 74.2539C158.163 74.2539 156.2 74.6186 154.587 75.8284C154.305 76.0405 154.155 76.3862 154.193 76.7376C154.43 78.8936 154.926 80.6235 155.792 82.1275C156.657 83.6311 157.854 84.8422 159.392 86.0141C159.57 86.1497 159.784 86.219 160 86.2186C160.216 86.219 160.43 86.1497 160.608 86.0141C162.146 84.8422 163.343 83.6311 164.208 82.1275C165.074 80.6235 165.57 78.8936 165.807 76.7376C165.845 76.3862 165.696 76.0405 165.413 75.8284Z" fill="#1C1F12"/>
<path d="M14 92.0581C14 104.47 23.8676 114.5 36 114.5C48.1324 114.5 58 104.47 58 92.0581C58 78.9387 52.3623 66.993 46.6631 58.28C43.8191 53.932 40.9743 50.4112 38.8418 47.979C37.776 46.7634 36.8892 45.8209 36.2709 45.1844C36.1739 45.0844 36.0835 44.9921 36 44.9073C35.9165 44.9921 35.8261 45.0844 35.7291 45.1844C35.1108 45.8209 34.224 46.7634 33.1582 47.979C31.0257 50.4112 28.1809 53.932 25.3369 58.28C19.6377 66.993 14 78.9387 14 92.0581Z" fill="#D7D7D7" stroke="#1C1F12" stroke-width="2"/>
<circle cx="6" cy="6" r="6" transform="matrix(-1 0 0 1 33 95.5)" fill="#9A958E"/>
</svg>
