<svg width="18" height="20" viewBox="0 0 18 20" fill="none" xmlns="http://www.w3.org/2000/svg">
<path d="M9 1L9 9.47059" stroke="#99958F" stroke-width="0.9" stroke-linecap="round" stroke-linejoin="round"/>
<path d="M11.6561 2.45298C11.3938 2.36675 11.1112 2.50952 11.025 2.77185C10.9388 3.03419 11.0815 3.31675 11.3439 3.40298L11.6561 2.45298ZM6.65612 3.40298C6.91846 3.31675 7.06123 3.03419 6.975 2.77185C6.88877 2.50952 6.60621 2.36675 6.34388 2.45298L6.65612 3.40298ZM16.5 10.5296C16.5 14.6717 13.1421 18.0296 9 18.0296V19.0296C13.6944 19.0296 17.5 15.224 17.5 10.5296H16.5ZM9 18.0296C4.85786 18.0296 1.5 14.6717 1.5 10.5296H0.5C0.5 15.224 4.30558 19.0296 9 19.0296V18.0296ZM11.3439 3.40298C14.3387 4.38734 16.5 7.20672 16.5 10.5296H17.5C17.5 6.76204 15.0491 3.56821 11.6561 2.45298L11.3439 3.40298ZM1.5 10.5296C1.5 7.20672 3.66128 4.38734 6.65612 3.40298L6.34388 2.45298C2.95086 3.56821 0.5 6.76204 0.5 10.5296H1.5Z" fill="#99958F"/>
</svg>
