<svg width="19" height="16" viewBox="0 0 19 16" fill="none" xmlns="http://www.w3.org/2000/svg">
<path d="M7.5 0.500488H18.5" stroke="#373737" stroke-linecap="round"/>
<path d="M7.5 4.50049H15.5" stroke="#373737" stroke-linecap="round"/>
<path d="M7.5 8.50049H12.5" stroke="#373737" stroke-linecap="round"/>
<path d="M3.5 0.500488L3.5 11.5005" stroke="#373737" stroke-linecap="round"/>
<path d="M6.85355 12.354C7.04882 12.1588 7.04882 11.8422 6.85355 11.6469C6.65829 11.4517 6.34171 11.4517 6.14645 11.6469L6.85355 12.354ZM3.5 15.0005L3.14645 15.354C3.24021 15.4478 3.36739 15.5005 3.5 15.5005C3.63261 15.5005 3.75979 15.4478 3.85355 15.354L3.5 15.0005ZM0.853553 11.6469C0.658291 11.4517 0.341708 11.4517 0.146446 11.6469C-0.0488162 11.8422 -0.0488162 12.1588 0.146446 12.354L0.853553 11.6469ZM6.14645 11.6469L3.14645 14.6469L3.85355 15.354L6.85355 12.354L6.14645 11.6469ZM3.85355 14.6469L0.853553 11.6469L0.146446 12.354L3.14645 15.354L3.85355 14.6469Z" fill="#373737"/>
</svg>
