<svg xmlns="http://www.w3.org/2000/svg" viewBox="0 0 11 6.28"><defs><linearGradient id="a" data-name="Dégradé sans nom 2" x1="5.56" y1="4.89" x2="10.56" y2="4.89" gradientTransform="matrix(1 0 0 -1 0 8)" gradientUnits="userSpaceOnUse"><stop offset="0" stop-color="#d1dddf"/><stop offset=".54" stop-color="#fff"/></linearGradient></defs><path d="M9.38.08 5.73 3.04c-.13.11-.32.11-.45 0L1.63.08A.357.357 0 0 0 1.4 0H.36C.05 0-.12.37.1.6l5.14 5.57c.14.15.38.15.53 0L10.91.6c.21-.23.05-.6-.26-.6H9.61a.4.4 0 0 0-.23.08Z" style="fill:#fff;fill-rule:evenodd"/><path d="M5.68 3.48s-.12.12-.12.3V5.3c0 .19.12.31.12.31l4.87-5H9.18l-3.5 2.87Z" style="fill-rule:evenodd;fill:url(#a)"/></svg>