<?xml version="1.0" encoding="UTF-8"?>
<svg id="Calque_1" xmlns="http://www.w3.org/2000/svg" version="1.1" viewBox="0 0 45.6 45.6">
  <!-- Generator: Adobe Illustrator 29.0.1, SVG Export Plug-In . SVG Version: 2.1.0 Build 192)  -->
  <defs>
    <style>
      .st0 {
        fill: #fff;
        fill-rule: evenodd;
      }
    </style>
  </defs>
  <path class="st0" d="M28.4,22.8l16.3,16.3c1.2,1.2,1.2,3.1,0,4.2l-1.4,1.4c-1.2,1.2-3.1,1.2-4.2,0l-16.3-16.3L6.5,44.7c-1.2,1.2-3.1,1.2-4.2,0l-1.4-1.4c-1.2-1.2-1.2-3.1,0-4.2l16.3-16.3L.9,6.5C-.3,5.4-.3,3.5.9,2.3l1.4-1.4C3.5-.3,5.4-.3,6.5.9l16.3,16.3L39.1.9c1.2-1.2,3.1-1.2,4.2,0l1.4,1.4c1.2,1.2,1.2,3.1,0,4.2l-16.3,16.3Z"/>
</svg>