<?xml version="1.0" encoding="UTF-8"?>
<svg id="Calque_1" xmlns="http://www.w3.org/2000/svg" version="1.1" viewBox="0 0 44.3 44">
  <!-- Generator: Adobe Illustrator 29.0.1, SVG Export Plug-In . SVG Version: 2.1.0 Build 192)  -->
  <defs>
    <style>
      .st0 {
        fill: #fff;
        fill-rule: evenodd;
      }
    </style>
  </defs>
  <path class="st0" d="M11.3,10.9l18.8,1.9c.7,0,1.2.6,1.3,1.3l1.9,18.8c0,.3.2.6.4.9l3,3c.9.9,2.4.3,2.5-1l1.2-30.5c0-.8-.7-1.5-1.5-1.5l-30.5,1.2c-1.3,0-1.9,1.6-1,2.5l3,3c.2.2.5.4.9.4Z"/>
  <path class="st0" d="M26.5,16.7l-7.2,1.3c-.7.1-1.3.5-1.7,1.1l-13.5,19.6c-.7,1,.5,2.2,1.5,1.5l19.7-13.4c.6-.4,1-1.1,1.1-1.8l1.1-7.3c0-.7-.4-1.1-1-1Z"/>
</svg>